<?xml version="1.0" encoding="UTF-8" standalone="no"?>
<!DOCTYPE svg PUBLIC "-//W3C//DTD SVG 1.1//EN"
 "http://www.w3.org/Graphics/SVG/1.1/DTD/svg11.dtd">
<!-- Generated by graphviz version 9.0.0 (20230911.1827)
 -->
<!-- Pages: 1 -->
<svg width="534pt" height="404pt"
 viewBox="0.00 0.00 533.50 404.00" xmlns="http://www.w3.org/2000/svg" xmlns:xlink="http://www.w3.org/1999/xlink">
<g id="graph0" class="graph" transform="scale(1 1) rotate(0) translate(4 400)">
<polygon fill="white" stroke="none" points="-4,4 -4,-400 529.5,-400 529.5,4 -4,4"/>
<!-- [root] aws_eip.lb (expand) -->
<g id="node1" class="node">
<title>[root] aws_eip.lb (expand)</title>
<polygon fill="none" stroke="black" points="300.75,-180 224.75,-180 224.75,-144 300.75,-144 300.75,-180"/>
<text text-anchor="middle" x="262.75" y="-156.57" font-family="Times New Roman,serif" font-size="14.00">aws_eip.lb</text>
</g>
<!-- [root] aws_instance.myec2 (expand) -->
<g id="node2" class="node">
<title>[root] aws_instance.myec2 (expand)</title>
<polygon fill="none" stroke="black" points="328.13,-108 197.38,-108 197.38,-72 328.13,-72 328.13,-108"/>
<text text-anchor="middle" x="262.75" y="-84.58" font-family="Times New Roman,serif" font-size="14.00">aws_instance.myec2</text>
</g>
<!-- [root] aws_eip.lb (expand)&#45;&gt;[root] aws_instance.myec2 (expand) -->
<g id="edge1" class="edge">
<title>[root] aws_eip.lb (expand)&#45;&gt;[root] aws_instance.myec2 (expand)</title>
<path fill="none" stroke="black" d="M262.75,-143.7C262.75,-136.41 262.75,-127.73 262.75,-119.54"/>
<polygon fill="black" stroke="black" points="266.25,-119.62 262.75,-109.62 259.25,-119.62 266.25,-119.62"/>
</g>
<!-- [root] provider[&quot;registry.terraform.io/hashicorp/aws&quot;] -->
<g id="node4" class="node">
<title>[root] provider[&quot;registry.terraform.io/hashicorp/aws&quot;]</title>
<polygon fill="none" stroke="black" points="262.75,-36 0,-18 262.75,0 525.5,-18 262.75,-36"/>
<text text-anchor="middle" x="262.75" y="-12.58" font-family="Times New Roman,serif" font-size="14.00">provider[&quot;registry.terraform.io/hashicorp/aws&quot;]</text>
</g>
<!-- [root] aws_instance.myec2 (expand)&#45;&gt;[root] provider[&quot;registry.terraform.io/hashicorp/aws&quot;] -->
<g id="edge2" class="edge">
<title>[root] aws_instance.myec2 (expand)&#45;&gt;[root] provider[&quot;registry.terraform.io/hashicorp/aws&quot;]</title>
<path fill="none" stroke="black" d="M262.75,-71.7C262.75,-64.41 262.75,-55.73 262.75,-47.54"/>
<polygon fill="black" stroke="black" points="266.25,-47.62 262.75,-37.62 259.25,-47.62 266.25,-47.62"/>
</g>
<!-- [root] aws_security_group.allow_tls (expand) -->
<g id="node3" class="node">
<title>[root] aws_security_group.allow_tls (expand)</title>
<polygon fill="none" stroke="black" points="354,-252 171.5,-252 171.5,-216 354,-216 354,-252"/>
<text text-anchor="middle" x="262.75" y="-228.57" font-family="Times New Roman,serif" font-size="14.00">aws_security_group.allow_tls</text>
</g>
<!-- [root] aws_security_group.allow_tls (expand)&#45;&gt;[root] aws_eip.lb (expand) -->
<g id="edge3" class="edge">
<title>[root] aws_security_group.allow_tls (expand)&#45;&gt;[root] aws_eip.lb (expand)</title>
<path fill="none" stroke="black" d="M262.75,-215.7C262.75,-208.41 262.75,-199.73 262.75,-191.54"/>
<polygon fill="black" stroke="black" points="266.25,-191.62 262.75,-181.62 259.25,-191.62 266.25,-191.62"/>
</g>
<!-- [root] provider[&quot;registry.terraform.io/hashicorp/aws&quot;] (close) -->
<g id="node5" class="node">
<title>[root] provider[&quot;registry.terraform.io/hashicorp/aws&quot;] (close)</title>
<ellipse fill="none" stroke="black" cx="262.75" cy="-306" rx="237.69" ry="18"/>
<text text-anchor="middle" x="262.75" y="-300.57" font-family="Times New Roman,serif" font-size="14.00">[root] provider[&quot;registry.terraform.io/hashicorp/aws&quot;] (close)</text>
</g>
<!-- [root] provider[&quot;registry.terraform.io/hashicorp/aws&quot;] (close)&#45;&gt;[root] aws_security_group.allow_tls (expand) -->
<g id="edge4" class="edge">
<title>[root] provider[&quot;registry.terraform.io/hashicorp/aws&quot;] (close)&#45;&gt;[root] aws_security_group.allow_tls (expand)</title>
<path fill="none" stroke="black" d="M262.75,-287.7C262.75,-280.41 262.75,-271.73 262.75,-263.54"/>
<polygon fill="black" stroke="black" points="266.25,-263.62 262.75,-253.62 259.25,-263.62 266.25,-263.62"/>
</g>
<!-- [root] root -->
<g id="node6" class="node">
<title>[root] root</title>
<ellipse fill="none" stroke="black" cx="262.75" cy="-378" rx="50.07" ry="18"/>
<text text-anchor="middle" x="262.75" y="-372.57" font-family="Times New Roman,serif" font-size="14.00">[root] root</text>
</g>
<!-- [root] root&#45;&gt;[root] provider[&quot;registry.terraform.io/hashicorp/aws&quot;] (close) -->
<g id="edge5" class="edge">
<title>[root] root&#45;&gt;[root] provider[&quot;registry.terraform.io/hashicorp/aws&quot;] (close)</title>
<path fill="none" stroke="black" d="M262.75,-359.7C262.75,-352.41 262.75,-343.73 262.75,-335.54"/>
<polygon fill="black" stroke="black" points="266.25,-335.62 262.75,-325.62 259.25,-335.62 266.25,-335.62"/>
</g>
</g>
</svg>
